<?xml version="1.0" encoding="UTF-8"?>
<svg id="_0" data-name="0" xmlns="http://www.w3.org/2000/svg" version="1.1" viewBox="0 0 200 200">
  <defs>
    <style>
      .cls-1 {
        fill: none;
        stroke: #000;
        stroke-linecap: round;
        stroke-linejoin: round;
        stroke-width: .7px;
      }
    </style>
  </defs>
  <g id="LWPOLYLINE">
    <path class="cls-1" d="M163,622h522c5,0,9,4,9,9s-4,9-9,9H163c-5,0-9-4-9-9s4-9,9-9Z"/>
  </g>
  <g id="LWPOLYLINE-2" data-name="LWPOLYLINE">
    <path class="cls-1" d="M-485,622H37c5,0,9,4,9,9s-4,9-9,9H-485c-5,0-9-4-9-9s4-9,9-9Z"/>
  </g>
  <g id="LWPOLYLINE-3" data-name="LWPOLYLINE">
    <path class="cls-1" d="M163,667h522c5,0,9,4,9,9s-4,9-9,9H163c-5,0-9-4-9-9s4-9,9-9Z"/>
  </g>
  <g id="LWPOLYLINE-4" data-name="LWPOLYLINE">
    <path class="cls-1" d="M-485,667H37c5,0,9,4,9,9s-4,9-9,9H-485c-5,0-9-4-9-9s4-9,9-9Z"/>
  </g>
  <g id="LWPOLYLINE-5" data-name="LWPOLYLINE">
    <path class="cls-1" d="M163,712h522c5,0,9,4,9,9s-4,9-9,9H163c-5,0-9-4-9-9s4-9,9-9Z"/>
  </g>
  <g id="LWPOLYLINE-6" data-name="LWPOLYLINE">
    <path class="cls-1" d="M-485,712H37c5,0,9,4,9,9s-4,9-9,9H-485c-5,0-9-4-9-9s4-9,9-9Z"/>
  </g>
  <g id="LWPOLYLINE-7" data-name="LWPOLYLINE">
    <rect class="cls-1" x="-566" y="-602" width="1332" height="1404"/>
  </g>
</svg>